<mxfile host="65bd71144e">
    <diagram id="xYQ8Gnr8b97CzqsovOpS" name="Page-1">
        <mxGraphModel dx="784" dy="445" grid="1" gridSize="1" guides="1" tooltips="1" connect="1" arrows="1" fold="1" page="1" pageScale="1" pageWidth="1100" pageHeight="850" math="0" shadow="0">
            <root>
                <mxCell id="0"/>
                <mxCell id="1" parent="0"/>
                <mxCell id="34" value="" style="html=1;entryX=0;entryY=0.5;entryDx=0;entryDy=0;" edge="1" parent="1" source="19" target="45">
                    <mxGeometry relative="1" as="geometry">
                        <mxPoint x="952.9999999999998" y="23" as="targetPoint"/>
                    </mxGeometry>
                </mxCell>
                <mxCell id="19" value="name" style="rounded=1;html=1;fillColor=#dae8fc;strokeColor=none;whiteSpace=wrap;gradientColor=none;" vertex="1" parent="1">
                    <mxGeometry x="787" y="11" width="86" height="24" as="geometry"/>
                </mxCell>
                <mxCell id="57" style="html=1;" edge="1" parent="1" source="20" target="47">
                    <mxGeometry relative="1" as="geometry"/>
                </mxCell>
                <mxCell id="20" value="period" style="rounded=1;html=1;fillColor=#dae8fc;strokeColor=none;whiteSpace=wrap;gradientColor=none;" vertex="1" parent="1">
                    <mxGeometry x="787" y="69" width="86" height="24" as="geometry"/>
                </mxCell>
                <mxCell id="56" style="html=1;entryX=0;entryY=0.5;entryDx=0;entryDy=0;" edge="1" parent="1" source="21" target="46">
                    <mxGeometry relative="1" as="geometry"/>
                </mxCell>
                <mxCell id="21" value="wave" style="rounded=1;html=1;fillColor=#dae8fc;strokeColor=none;whiteSpace=wrap;gradientColor=none;" vertex="1" parent="1">
                    <mxGeometry x="787" y="40" width="86" height="24" as="geometry"/>
                </mxCell>
                <mxCell id="59" style="html=1;entryX=0;entryY=0.5;entryDx=0;entryDy=0;" edge="1" parent="1" source="22" target="49">
                    <mxGeometry relative="1" as="geometry"/>
                </mxCell>
                <mxCell id="22" value="data" style="rounded=1;html=1;fillColor=#dae8fc;strokeColor=none;whiteSpace=wrap;gradientColor=none;" vertex="1" parent="1">
                    <mxGeometry x="787" y="127" width="86" height="24" as="geometry"/>
                </mxCell>
                <mxCell id="58" style="html=1;entryX=0;entryY=0.5;entryDx=0;entryDy=0;" edge="1" parent="1" source="23" target="48">
                    <mxGeometry relative="1" as="geometry"/>
                </mxCell>
                <mxCell id="23" value="pahse" style="rounded=1;html=1;fillColor=#dae8fc;strokeColor=none;whiteSpace=wrap;gradientColor=none;" vertex="1" parent="1">
                    <mxGeometry x="787" y="98" width="86" height="24" as="geometry"/>
                </mxCell>
                <mxCell id="60" style="html=1;entryX=0;entryY=0.5;entryDx=0;entryDy=0;" edge="1" parent="1" source="25" target="43">
                    <mxGeometry relative="1" as="geometry"/>
                </mxCell>
                <mxCell id="25" value="node" style="rounded=1;html=1;fillColor=#dae8fc;strokeColor=none;whiteSpace=wrap;gradientColor=none;" vertex="1" parent="1">
                    <mxGeometry x="787" y="156" width="86" height="24" as="geometry"/>
                </mxCell>
                <mxCell id="8" style="edgeStyle=entityRelationEdgeStyle;html=1;entryX=0;entryY=0.5;entryDx=0;entryDy=0;" edge="1" parent="1" source="2" target="10">
                    <mxGeometry relative="1" as="geometry">
                        <mxPoint x="391" y="170" as="targetPoint"/>
                    </mxGeometry>
                </mxCell>
                <mxCell id="9" style="edgeStyle=entityRelationEdgeStyle;html=1;entryX=0;entryY=0.5;entryDx=0;entryDy=0;" edge="1" parent="1" source="2" target="7">
                    <mxGeometry relative="1" as="geometry"/>
                </mxCell>
                <mxCell id="12" style="edgeStyle=entityRelationEdgeStyle;html=1;entryX=0;entryY=0.5;entryDx=0;entryDy=0;" edge="1" parent="1" source="2" target="5">
                    <mxGeometry relative="1" as="geometry"/>
                </mxCell>
                <mxCell id="13" style="edgeStyle=entityRelationEdgeStyle;html=1;entryX=0;entryY=0.5;entryDx=0;entryDy=0;" edge="1" parent="1" source="2" target="6">
                    <mxGeometry relative="1" as="geometry"/>
                </mxCell>
                <mxCell id="14" style="edgeStyle=entityRelationEdgeStyle;html=1;" edge="1" parent="1" source="2" target="4">
                    <mxGeometry relative="1" as="geometry"/>
                </mxCell>
                <mxCell id="2" value="WaveDrom 波型預估" style="rounded=1;whiteSpace=wrap;html=1;fillColor=#d5e8d4;strokeColor=none;" vertex="1" parent="1">
                    <mxGeometry x="120" y="360" width="120" height="40" as="geometry"/>
                </mxCell>
                <mxCell id="4" value="config" style="rounded=1;whiteSpace=wrap;html=1;fillColor=#a20025;strokeColor=none;flipH=0;fontColor=#ffffff;" vertex="1" parent="1">
                    <mxGeometry x="392" y="536" width="120" height="40" as="geometry"/>
                </mxCell>
                <mxCell id="5" value="foot" style="rounded=1;whiteSpace=wrap;html=1;fillColor=#e1d5e7;strokeColor=none;" vertex="1" parent="1">
                    <mxGeometry x="392" y="448" width="120" height="40" as="geometry"/>
                </mxCell>
                <mxCell id="6" value="head" style="rounded=1;whiteSpace=wrap;html=1;fillColor=#fff2cc;strokeColor=none;" vertex="1" parent="1">
                    <mxGeometry x="392" y="360" width="120" height="40" as="geometry"/>
                </mxCell>
                <mxCell id="64" value="" style="edgeStyle=none;html=1;" edge="1" parent="1" source="7" target="63">
                    <mxGeometry relative="1" as="geometry"/>
                </mxCell>
                <mxCell id="7" value="edge" style="rounded=1;whiteSpace=wrap;html=1;fillColor=#f8cecc;strokeColor=none;" vertex="1" parent="1">
                    <mxGeometry x="392" y="268" width="120" height="40" as="geometry"/>
                </mxCell>
                <mxCell id="17" style="edgeStyle=entityRelationEdgeStyle;html=1;entryX=0;entryY=0.5;entryDx=0;entryDy=0;" edge="1" parent="1" source="10" target="15">
                    <mxGeometry relative="1" as="geometry"/>
                </mxCell>
                <mxCell id="18" style="edgeStyle=entityRelationEdgeStyle;html=1;entryX=0;entryY=0.5;entryDx=0;entryDy=0;" edge="1" parent="1" source="10" target="16">
                    <mxGeometry relative="1" as="geometry"/>
                </mxCell>
                <mxCell id="10" value="Signal" style="rounded=1;whiteSpace=wrap;html=1;fillColor=#dae8fc;strokeColor=none;" vertex="1" parent="1">
                    <mxGeometry x="392" y="175" width="120" height="40" as="geometry"/>
                </mxCell>
                <mxCell id="27" style="edgeStyle=entityRelationEdgeStyle;html=1;entryX=0;entryY=0.5;entryDx=0;entryDy=0;" edge="1" parent="1" source="15" target="19">
                    <mxGeometry relative="1" as="geometry"/>
                </mxCell>
                <mxCell id="28" style="edgeStyle=entityRelationEdgeStyle;html=1;entryX=0;entryY=0.5;entryDx=0;entryDy=0;" edge="1" parent="1" source="15" target="21">
                    <mxGeometry relative="1" as="geometry"/>
                </mxCell>
                <mxCell id="29" style="edgeStyle=entityRelationEdgeStyle;html=1;entryX=0;entryY=0.5;entryDx=0;entryDy=0;" edge="1" parent="1" source="15" target="20">
                    <mxGeometry relative="1" as="geometry"/>
                </mxCell>
                <mxCell id="30" style="edgeStyle=entityRelationEdgeStyle;html=1;entryX=0;entryY=0.5;entryDx=0;entryDy=0;" edge="1" parent="1" source="15" target="23">
                    <mxGeometry relative="1" as="geometry"/>
                </mxCell>
                <mxCell id="31" style="edgeStyle=entityRelationEdgeStyle;html=1;entryX=0;entryY=0.5;entryDx=0;entryDy=0;" edge="1" parent="1" source="15" target="22">
                    <mxGeometry relative="1" as="geometry"/>
                </mxCell>
                <mxCell id="32" style="edgeStyle=entityRelationEdgeStyle;html=1;entryX=0;entryY=0.5;entryDx=0;entryDy=0;" edge="1" parent="1" source="15" target="25">
                    <mxGeometry relative="1" as="geometry"/>
                </mxCell>
                <mxCell id="15" value="Wave Lane" style="rounded=1;whiteSpace=wrap;html=1;fillColor=#dae8fc;strokeColor=none;" vertex="1" parent="1">
                    <mxGeometry x="593" y="109" width="120" height="40" as="geometry"/>
                </mxCell>
                <mxCell id="62" style="edgeStyle=none;html=1;entryX=0;entryY=0.5;entryDx=0;entryDy=0;" edge="1" parent="1" source="16" target="61">
                    <mxGeometry relative="1" as="geometry"/>
                </mxCell>
                <mxCell id="16" value="Wave Group" style="rounded=1;whiteSpace=wrap;html=1;fillColor=#dae8fc;strokeColor=none;" vertex="1" parent="1">
                    <mxGeometry x="591" y="201" width="120" height="40" as="geometry"/>
                </mxCell>
                <mxCell id="43" value="節點&lt;span style=&quot;color: rgba(0, 0, 0, 0); font-family: monospace; font-size: 0px; text-align: start;&quot;&gt;%3CmxGraphModel%3E%3Croot%3E%3CmxCell%20id%3D%220%22%2F%3E%3CmxCell%20id%3D%221%22%20parent%3D%220%22%2F%3E%3CmxCell%20id%3D%222%22%20value%3D%22%E7%9B%B8%E4%BD%8D%22%20style%3D%22rounded%3D1%3Bhtml%3D1%3BfillColor%3D%23dae8fc%3BstrokeColor%3Dnone%3BwhiteSpace%3Dwrap%3BgradientColor%3Dnone%3B%22%20vertex%3D%221%22%20parent%3D%221%22%3E%3CmxGeometry%20x%3D%22947%22%20y%3D%22128%22%20width%3D%2286%22%20height%3D%2224%22%20as%3D%22geometry%22%2F%3E%3C%2FmxCell%3E%3C%2Froot%3E%3C%2FmxGraphModel%3E&lt;/span&gt;" style="rounded=1;html=1;fillColor=#dae8fc;strokeColor=none;whiteSpace=wrap;gradientColor=none;" vertex="1" parent="1">
                    <mxGeometry x="960" y="156" width="86" height="24" as="geometry"/>
                </mxCell>
                <mxCell id="45" value="波型名稱" style="rounded=1;html=1;fillColor=#dae8fc;strokeColor=none;whiteSpace=wrap;gradientColor=none;" vertex="1" parent="1">
                    <mxGeometry x="960" y="11" width="86" height="24" as="geometry"/>
                </mxCell>
                <mxCell id="46" value="波型" style="rounded=1;html=1;fillColor=#dae8fc;strokeColor=none;whiteSpace=wrap;gradientColor=none;" vertex="1" parent="1">
                    <mxGeometry x="960" y="40" width="86" height="24" as="geometry"/>
                </mxCell>
                <mxCell id="47" value="週期" style="rounded=1;html=1;fillColor=#dae8fc;strokeColor=none;whiteSpace=wrap;gradientColor=none;" vertex="1" parent="1">
                    <mxGeometry x="960" y="69" width="86" height="24" as="geometry"/>
                </mxCell>
                <mxCell id="48" value="相位" style="rounded=1;html=1;fillColor=#dae8fc;strokeColor=none;whiteSpace=wrap;gradientColor=none;" vertex="1" parent="1">
                    <mxGeometry x="960" y="98" width="86" height="24" as="geometry"/>
                </mxCell>
                <mxCell id="49" value="波型資料名字" style="rounded=1;html=1;fillColor=#dae8fc;strokeColor=none;whiteSpace=wrap;gradientColor=none;" vertex="1" parent="1">
                    <mxGeometry x="960" y="127" width="86" height="24" as="geometry"/>
                </mxCell>
                <mxCell id="61" value="節點&lt;span style=&quot;color: rgba(0, 0, 0, 0); font-family: monospace; font-size: 0px; text-align: start;&quot;&gt;%3CmxGraphModel%3E%3Croot%3E%3CmxCell%20id%3D%220%22%2F%3E%3CmxCell%20id%3D%221%22%20parent%3D%220%22%2F%3E%3CmxCell%20id%3D%222%22%20value%3D%22%E7%9B%B8%E4%BD%8D%22%20style%3D%22rounded%3D1%3Bhtml%3D1%3BfillColor%3D%23dae8fc%3BstrokeColor%3Dnone%3BwhiteSpace%3Dwrap%3BgradientColor%3Dnone%3B%22%20vertex%3D%221%22%20parent%3D%221%22%3E%3CmxGeometry%20x%3D%22947%22%20y%3D%22128%22%20width%3D%2286%22%20height%3D%2224%22%20as%3D%22geometry%22%2F%3E%3C%2FmxCell%3E%3C%2Froot%3E%3C%2FmxGraphModel%3E&lt;/span&gt;" style="rounded=1;html=1;fillColor=#dae8fc;strokeColor=none;whiteSpace=wrap;gradientColor=none;" vertex="1" parent="1">
                    <mxGeometry x="787" y="209" width="86" height="24" as="geometry"/>
                </mxCell>
                <mxCell id="63" value="..." style="rounded=1;whiteSpace=wrap;html=1;fillColor=#f8cecc;strokeColor=none;" vertex="1" parent="1">
                    <mxGeometry x="593" y="276" width="86" height="24" as="geometry"/>
                </mxCell>
            </root>
        </mxGraphModel>
    </diagram>
</mxfile>